<svg width="160" height="50" viewBox="0 0 160 50" fill="none" xmlns="http://www.w3.org/2000/svg">
<path d="M15.0702 46.3313L14.2193 44.0561H10.9451L10.1127 46.3313H8.63281L11.833 38.0996H13.3499L16.5501 46.3128H15.0702V46.3313ZM13.8493 42.8907L13.0539 40.6709C12.9984 40.5229 12.9059 40.2824 12.8134 39.9679C12.7024 39.6535 12.6469 39.413 12.5914 39.265C12.4805 39.7275 12.3325 40.2269 12.129 40.7634L11.3521 42.8907H13.8493Z" fill="#E68C41"/>
<path d="M20.6179 46.4413C19.804 46.4413 19.1566 46.1638 18.7126 45.5904H18.6386C18.6941 46.1083 18.7126 46.4228 18.7126 46.5338V49.0681H17.3438V40.1149H18.4536C18.4906 40.2259 18.5461 40.5034 18.6386 40.9473H18.7126C19.1381 40.3184 19.7855 40.0039 20.6549 40.0039C21.4689 40.0039 22.0978 40.2814 22.5418 40.8363C22.9857 41.3913 23.2262 42.1867 23.2262 43.1856C23.2262 44.203 23.0042 44.9799 22.5418 45.5534C22.0608 46.1453 21.4319 46.4413 20.6179 46.4413ZM20.285 41.0953C19.73 41.0953 19.3416 41.2433 19.0826 41.5578C18.8236 41.8722 18.7126 42.3532 18.7126 43.0191V43.2226C18.7126 43.981 18.8421 44.5175 19.0826 44.869C19.3416 45.2019 19.7485 45.3684 20.3035 45.3684C20.7844 45.3684 21.1544 45.1834 21.4134 44.8135C21.6723 44.4435 21.8018 43.907 21.8018 43.2226C21.8018 42.5197 21.6723 42.0017 21.4134 41.6503C21.1544 41.2803 20.7844 41.0953 20.285 41.0953Z" fill="#E68C41"/>
<path d="M27.8914 46.4413C27.0775 46.4413 26.43 46.1638 25.9861 45.5904H25.9121C25.9676 46.1083 25.9861 46.4228 25.9861 46.5338V49.0681H24.6172V40.1149H25.7271C25.7641 40.2259 25.8196 40.5034 25.9121 40.9473H25.9861C26.4115 40.3184 27.059 40.0039 27.9284 40.0039C28.7423 40.0039 29.3712 40.2814 29.8152 40.8363C30.2592 41.3913 30.4996 42.1867 30.4996 43.1856C30.4996 44.203 30.2777 44.9799 29.8152 45.5534C29.3342 46.1453 28.7053 46.4413 27.8914 46.4413ZM27.5584 41.0953C27.0035 41.0953 26.615 41.2433 26.356 41.5578C26.097 41.8722 25.9861 42.3532 25.9861 43.0191V43.2226C25.9861 43.981 26.1155 44.5175 26.356 44.869C26.615 45.2019 27.022 45.3684 27.5769 45.3684C28.0579 45.3684 28.4278 45.1834 28.6868 44.8135C28.9458 44.4435 29.0753 43.907 29.0753 43.2226C29.0753 42.5197 28.9458 42.0017 28.6868 41.6503C28.4463 41.2803 28.0579 41.0953 27.5584 41.0953Z" fill="#E68C41"/>
<path d="M37.6375 43.2236C37.6375 44.241 37.3601 45.018 36.8236 45.5914C36.2872 46.1649 35.5287 46.4423 34.5483 46.4423C33.9379 46.4423 33.4014 46.3129 32.939 46.0539C32.4765 45.7949 32.125 45.4249 31.8661 44.9255C31.6071 44.4445 31.4961 43.8711 31.4961 43.2236C31.4961 42.2247 31.7736 41.4293 32.31 40.8744C32.8465 40.3194 33.6049 40.0234 34.5853 40.0234C35.5287 40.0234 36.2687 40.3194 36.8051 40.8929C37.3601 41.4663 37.6375 42.2432 37.6375 43.2236ZM32.9205 43.2236C32.9205 44.648 33.4754 45.3694 34.5853 45.3694C35.6767 45.3694 36.2317 44.648 36.2317 43.2236C36.2317 41.8178 35.6767 41.0963 34.5853 41.0963C34.0119 41.0963 33.5864 41.2813 33.3274 41.6513C33.0499 42.0028 32.9205 42.5392 32.9205 43.2236Z" fill="#E68C41"/>
<path d="M38.9336 38.4871C38.9336 38.2466 39.0076 38.0801 39.1371 37.9506C39.2666 37.8211 39.47 37.7656 39.7105 37.7656C39.951 37.7656 40.136 37.8211 40.284 37.9506C40.4135 38.0801 40.4874 38.2651 40.4874 38.4871C40.4874 38.709 40.4135 38.894 40.284 39.0235C40.1545 39.153 39.9695 39.2085 39.7105 39.2085C39.4515 39.2085 39.2666 39.153 39.1371 39.0235C38.9891 38.894 38.9336 38.709 38.9336 38.4871ZM40.3765 46.3303H39.0076V40.1334H40.3765V46.3303Z" fill="#E68C41"/>
<path d="M47.8498 46.3314H46.4624V42.5207C46.4624 42.0398 46.37 41.6883 46.1665 41.4478C45.963 41.2073 45.6485 41.0963 45.2046 41.0963C44.6311 41.0963 44.2057 41.2628 43.9282 41.5958C43.6507 41.9288 43.5212 42.4837 43.5212 43.2421V46.3314H42.1523V40.1344H43.2252L43.4102 40.9484H43.4842C43.6877 40.6524 43.9652 40.4304 44.3166 40.2639C44.6681 40.0974 45.0751 40.0234 45.519 40.0234C47.0729 40.0234 47.8498 40.7819 47.8498 42.2987V46.3314Z" fill="#E68C41"/>
<path d="M51.9747 45.3695C52.3076 45.3695 52.6406 45.314 52.9736 45.2215V46.2204C52.8256 46.2759 52.6221 46.3314 52.3816 46.3869C52.1412 46.4239 51.9007 46.4424 51.6417 46.4424C50.3283 46.4424 49.6809 45.7765 49.6809 44.4631V41.1334H48.793V40.56L49.7364 40.079L50.1988 38.7656H51.0498V40.1345H52.8996V41.1334H51.0498V44.4446C51.0498 44.7591 51.1238 44.9995 51.2902 45.1475C51.4937 45.2955 51.6972 45.3695 51.9747 45.3695Z" fill="#E68C41"/>
<path d="M59.539 46.3304H58.1517V42.5198C58.1517 42.0388 58.0592 41.6874 57.8742 41.4654C57.6892 41.2249 57.3932 41.1139 56.9863 41.1139C56.4498 41.1139 56.0613 41.2804 55.8209 41.6134C55.5804 41.9463 55.4509 42.5013 55.4509 43.2597V46.3489H54.082V40.152H55.1549L55.3399 40.9659H55.4139C55.5989 40.67 55.8579 40.448 56.1908 40.2815C56.5238 40.115 56.9123 40.041 57.3192 40.041C58.3181 40.041 58.9841 40.374 59.2986 41.0214H59.391C59.576 40.707 59.8535 40.485 60.205 40.3C60.5564 40.1335 60.9449 40.041 61.4074 40.041C62.1843 40.041 62.7392 40.226 63.0907 40.596C63.4422 40.9659 63.6272 41.5394 63.6272 42.2978V46.3304H62.2583V42.5198C62.2583 42.0388 62.1658 41.6874 61.9808 41.4654C61.7958 41.2249 61.4998 41.1139 61.0929 41.1139C60.5564 41.1139 60.168 41.2804 59.9275 41.5949C59.687 41.9093 59.5575 42.4088 59.5575 43.0562V46.3304H59.539Z" fill="#E68C41"/>
<path d="M68.1601 46.4423C67.1612 46.4423 66.3658 46.1649 65.7923 45.5914C65.2189 45.0365 64.9414 44.2595 64.9414 43.2791C64.9414 42.2617 65.2004 41.4663 65.7368 40.8929C66.2733 40.3194 66.9947 40.0234 67.9011 40.0234C68.7521 40.0234 69.4365 40.2639 69.9359 40.7634C70.4354 41.2628 70.6759 41.9473 70.6759 42.8167V43.5196H66.3658C66.3843 44.1116 66.5508 44.574 66.8837 44.907C67.1982 45.2215 67.6607 45.3879 68.2341 45.3879C68.6226 45.3879 68.974 45.3509 69.307 45.277C69.64 45.203 69.9914 45.092 70.3614 44.9255V45.9984C70.0284 46.1464 69.677 46.2574 69.344 46.3314C68.9925 46.4053 68.6041 46.4423 68.1601 46.4423ZM67.9196 41.0223C67.4757 41.0223 67.1242 41.1518 66.8652 41.4108C66.6063 41.6698 66.4398 42.0583 66.4028 42.5762H69.344C69.344 42.0583 69.2145 41.6698 68.9555 41.4108C68.6966 41.1518 68.3451 41.0223 67.9196 41.0223Z" fill="#E68C41"/>
<path d="M77.7404 46.3314H76.3531V42.5207C76.3531 42.0398 76.2606 41.6883 76.0571 41.4478C75.8536 41.2073 75.5391 41.0963 75.0952 41.0963C74.5217 41.0963 74.0963 41.2628 73.8188 41.5958C73.5413 41.9288 73.4118 42.4837 73.4118 43.2421V46.3314H72.043V40.1344H73.1159L73.3009 40.9484H73.3748C73.5783 40.6524 73.8558 40.4304 74.2073 40.2639C74.5587 40.0974 74.9657 40.0234 75.4097 40.0234C76.9635 40.0234 77.7404 40.7819 77.7404 42.2987V46.3314Z" fill="#E68C41"/>
<path d="M81.8692 45.3695C82.2022 45.3695 82.5351 45.314 82.8681 45.2215V46.2204C82.7201 46.2759 82.5166 46.3314 82.2762 46.3869C82.0357 46.4239 81.7952 46.4424 81.5362 46.4424C80.2229 46.4424 79.5754 45.7765 79.5754 44.4631V41.1334H78.6875V40.56L79.6309 40.079L80.0934 38.7656H80.9443V40.1345H82.7941V41.1334H80.9443V44.4446C80.9443 44.7591 81.0183 44.9995 81.1848 45.1475C81.3883 45.2955 81.6102 45.3695 81.8692 45.3695Z" fill="#E68C41"/>
<path d="M88.3215 44.5554C88.3215 45.1658 88.0995 45.6283 87.6371 45.9428C87.1746 46.2572 86.5087 46.4237 85.6577 46.4237C84.7883 46.4237 84.1039 46.2942 83.5859 46.0538V44.9254C84.3444 45.2583 85.0473 45.4248 85.7132 45.4248C86.5642 45.4248 86.9896 45.1843 86.9896 44.6849C86.9896 44.5369 86.9341 44.3889 86.8416 44.2964C86.7491 44.1854 86.6012 44.0745 86.3792 43.9635C86.1572 43.8525 85.8612 43.723 85.4913 43.575C84.7513 43.2975 84.2334 43.02 83.9744 42.7426C83.7154 42.4651 83.5859 42.1136 83.5859 41.6697C83.5859 41.1332 83.8079 40.7263 84.2519 40.4303C84.6958 40.1343 85.3063 39.9863 86.0832 39.9863C86.8416 39.9863 87.5631 40.1343 88.2475 40.4303L87.8036 41.4292C87.1006 41.1517 86.5087 41.0222 86.0462 41.0222C85.3248 41.0222 84.9548 41.2257 84.9548 41.6142C84.9548 41.7992 85.0473 41.9656 85.2323 42.1136C85.4173 42.2616 85.8427 42.4281 86.4717 42.6686C87.0081 42.8721 87.3966 43.0385 87.6371 43.205C87.8775 43.3715 88.0625 43.5565 88.1735 43.7785C88.266 44.0005 88.3215 44.2594 88.3215 44.5554Z" fill="#E68C41"/>
<path d="M96.3715 46.3304L93.8928 39.4861H93.8373C93.9113 40.5035 93.9298 41.4469 93.9298 42.3348V46.3119H92.6719V38.1172H94.6512L97.0375 44.6286H97.0745L99.5162 38.1172H101.496V46.3119H100.145V42.2608C100.145 41.8538 100.164 41.3174 100.182 40.67C100.201 40.0225 100.219 39.6156 100.238 39.4861H100.182L97.6109 46.3119H96.3715V46.3304Z" fill="#E68C41"/>
<path d="M107.431 46.3314L107.153 45.4619H107.098C106.783 45.8319 106.469 46.0909 106.154 46.2389C105.84 46.3684 105.433 46.4423 104.933 46.4423C104.304 46.4423 103.805 46.2759 103.435 45.9429C103.083 45.6099 102.898 45.1475 102.898 44.5555C102.898 43.9081 103.139 43.4271 103.638 43.1127C104.138 42.7982 104.896 42.6132 105.914 42.5762L107.024 42.5392V42.2062C107.024 41.8178 106.931 41.5218 106.728 41.3183C106.543 41.1148 106.228 41.0223 105.821 41.0223C105.488 41.0223 105.174 41.0778 104.859 41.1703C104.563 41.2628 104.267 41.3738 103.971 41.5033L103.527 40.5599C103.879 40.3934 104.267 40.2454 104.674 40.1529C105.1 40.0604 105.488 40.0234 105.858 40.0234C106.691 40.0234 107.301 40.1899 107.726 40.5414C108.152 40.8929 108.355 41.4293 108.355 42.1507V46.3314H107.431ZM105.396 45.4249C105.895 45.4249 106.302 45.2955 106.598 45.018C106.894 44.759 107.061 44.3705 107.061 43.8896V43.3531L106.228 43.3901C105.581 43.4086 105.1 43.5196 104.822 43.7046C104.526 43.8896 104.378 44.1671 104.378 44.5555C104.378 44.833 104.471 45.0365 104.637 45.203C104.785 45.3509 105.044 45.4249 105.396 45.4249Z" fill="#E68C41"/>
<path d="M112.333 46.4419C111.519 46.4419 110.89 46.1644 110.446 45.6095C110.002 45.0545 109.762 44.2591 109.762 43.2602C109.762 42.2428 109.984 41.4474 110.446 40.8924C110.909 40.319 111.538 40.0415 112.351 40.0415C113.202 40.0415 113.85 40.3375 114.294 40.9479H114.368C114.294 40.504 114.275 40.1525 114.275 39.8935V37.6367H115.663V46.3494H114.59L114.349 45.5355H114.294C113.831 46.1274 113.184 46.4419 112.333 46.4419ZM112.703 45.369C113.276 45.369 113.683 45.221 113.942 44.9065C114.201 44.6106 114.331 44.1111 114.349 43.4267V43.2417C114.349 42.4648 114.22 41.9098 113.942 41.5769C113.683 41.2439 113.258 41.0774 112.703 41.0774C112.222 41.0774 111.852 41.2624 111.593 41.6323C111.334 42.0023 111.205 42.5388 111.205 43.2417C111.205 43.9261 111.334 44.4441 111.593 44.8141C111.815 45.184 112.185 45.369 112.703 45.369Z" fill="#E68C41"/>
<path d="M120.25 46.4423C119.251 46.4423 118.456 46.1649 117.882 45.5914C117.309 45.0365 117.031 44.2595 117.031 43.2791C117.031 42.2617 117.29 41.4663 117.827 40.8929C118.345 40.3194 119.085 40.0234 119.991 40.0234C120.842 40.0234 121.526 40.2639 122.026 40.7634C122.525 41.2628 122.766 41.9473 122.766 42.8167V43.5196H118.456C118.474 44.1116 118.641 44.574 118.974 44.907C119.288 45.2215 119.75 45.3879 120.324 45.3879C120.712 45.3879 121.064 45.3509 121.397 45.277C121.73 45.203 122.081 45.092 122.451 44.9255V45.9984C122.118 46.1464 121.767 46.2574 121.434 46.3314C121.082 46.4053 120.675 46.4423 120.25 46.4423ZM119.991 41.0223C119.547 41.0223 119.196 41.1518 118.937 41.4108C118.678 41.6698 118.511 42.0583 118.474 42.5762H121.415C121.415 42.0583 121.286 41.6698 121.027 41.4108C120.768 41.1518 120.435 41.0223 119.991 41.0223Z" fill="#E68C41"/>
<path d="M132.034 46.3315H127.188V38.1367H132.034V39.2651H128.593V41.4849H131.812V42.6133H128.593V45.1846H132.034V46.3315Z" fill="#E68C41"/>
<path d="M137.583 46.3314L137.305 45.4619H137.25C136.935 45.8319 136.621 46.0909 136.306 46.2389C135.992 46.3684 135.585 46.4423 135.086 46.4423C134.457 46.4423 133.957 46.2759 133.587 45.9429C133.236 45.6099 133.051 45.1475 133.051 44.5555C133.051 43.9081 133.291 43.4271 133.791 43.1127C134.29 42.7797 135.049 42.6132 136.066 42.5762L137.176 42.5392V42.2062C137.176 41.8178 137.083 41.5218 136.88 41.3183C136.695 41.1148 136.38 41.0223 135.974 41.0223C135.641 41.0223 135.326 41.0778 135.012 41.1703C134.716 41.2628 134.42 41.3738 134.124 41.5033L133.68 40.5599C134.031 40.3934 134.42 40.2454 134.827 40.1529C135.252 40.0604 135.641 40.0234 136.011 40.0234C136.843 40.0234 137.453 40.1899 137.879 40.5414C138.304 40.8929 138.508 41.4293 138.508 42.1507V46.3314H137.583ZM135.53 45.4249C136.029 45.4249 136.436 45.2955 136.732 45.018C137.028 44.759 137.194 44.3705 137.194 43.8896V43.3531L136.362 43.3901C135.715 43.4086 135.234 43.5196 134.956 43.7046C134.66 43.8896 134.512 44.1671 134.512 44.5555C134.512 44.833 134.605 45.0365 134.771 45.203C134.919 45.3509 135.178 45.4249 135.53 45.4249Z" fill="#E68C41"/>
<path d="M144.634 44.5554C144.634 45.1658 144.412 45.6283 143.95 45.9428C143.487 46.2572 142.821 46.4237 141.97 46.4237C141.101 46.4237 140.416 46.2942 139.898 46.0538V44.9254C140.657 45.2583 141.36 45.4248 142.026 45.4248C142.877 45.4248 143.302 45.1843 143.302 44.6849C143.302 44.5369 143.247 44.3889 143.154 44.2964C143.062 44.1854 142.914 44.0745 142.692 43.9635C142.47 43.8525 142.174 43.723 141.804 43.575C141.064 43.2975 140.546 43.02 140.287 42.7426C140.028 42.4651 139.898 42.1136 139.898 41.6697C139.898 41.1332 140.12 40.7263 140.564 40.4303C141.008 40.1343 141.619 39.9863 142.396 39.9863C143.154 39.9863 143.876 40.1343 144.56 40.4303L144.116 41.4292C143.413 41.1517 142.821 41.0222 142.359 41.0222C141.637 41.0222 141.267 41.2257 141.267 41.6142C141.267 41.7992 141.36 41.9656 141.545 42.1136C141.73 42.2431 142.155 42.4281 142.784 42.6686C143.321 42.8721 143.709 43.0385 143.95 43.205C144.19 43.3715 144.375 43.5565 144.486 43.7785C144.579 44.0005 144.634 44.2594 144.634 44.5554Z" fill="#E68C41"/>
<path d="M144.93 40.1348H146.428L147.741 43.6494C147.945 44.1489 148.074 44.6114 148.148 45.0553H148.204C148.241 44.8518 148.296 44.5929 148.389 44.3154C148.481 44.0194 148.981 42.632 149.869 40.1348H151.349L148.574 47.1456C148.074 48.4405 147.223 49.0694 146.058 49.0694C145.762 49.0694 145.448 49.0324 145.17 48.9769V47.941C145.374 47.978 145.614 48.015 145.873 48.015C146.539 48.015 147.001 47.6451 147.279 46.9051L147.519 46.3317L144.93 40.1348Z" fill="#E68C41"/>
<path d="M143.47 1.06496C144.34 1.06496 145.228 1.08346 146.097 1.04646C146.467 1.02797 146.652 1.17595 146.8 1.49042C147.466 2.97029 148.132 4.45015 148.798 5.94851C149.519 7.53936 150.222 9.14872 150.944 10.7396C151.647 12.3119 152.35 13.8843 153.053 15.4566C154.051 17.6579 155.05 19.8407 156.031 22.042C156.789 23.7439 157.548 25.4457 158.306 27.1291C158.824 28.3129 159.36 29.4783 159.897 30.6622C160.1 31.1247 160.026 31.2912 159.508 31.2912C157.788 31.2912 156.049 31.2912 154.329 31.2912C153.94 31.2912 153.718 31.1432 153.57 30.7732C152.886 29.1639 152.146 27.573 151.443 25.9822C151.332 25.7232 151.166 25.6492 150.907 25.6492C145.931 25.6492 140.955 25.6492 135.979 25.6492C135.701 25.6492 135.516 25.7232 135.405 26.0007C134.776 27.4065 134.147 28.8124 133.518 30.1998C133.407 30.4587 133.296 30.7547 133.13 30.9767C133.019 31.1247 132.797 31.2727 132.612 31.2727C130.818 31.2912 129.042 31.2912 127.247 31.2912C126.84 31.2912 126.748 31.1062 126.914 30.7732C127.617 29.2564 128.302 27.721 128.986 26.2041C129.8 24.4098 130.596 22.6155 131.391 20.8211C132.205 19.0083 133 17.214 133.814 15.4011C134.591 13.6623 135.387 11.942 136.182 10.2031C137.052 8.2608 137.921 6.29998 138.79 4.35766C139.234 3.35875 139.678 2.37834 140.159 1.39793C140.233 1.24994 140.511 1.10196 140.696 1.08346C141.621 1.04646 142.546 1.06496 143.47 1.06496ZM143.507 7.74284C143.452 7.74284 143.378 7.74284 143.322 7.74284C143.193 8.07581 143.045 8.40878 142.915 8.74175C142.102 10.5916 141.288 12.4414 140.474 14.3097C139.678 16.1226 138.883 17.9354 138.087 19.7482C137.902 20.1552 137.976 20.3032 138.457 20.3032C141.769 20.3032 145.08 20.3032 148.391 20.3032C148.909 20.3032 148.983 20.1737 148.761 19.6927C148.15 18.3239 147.54 16.9365 146.93 15.5676C145.968 13.3478 145.006 11.1095 144.044 8.88974C143.877 8.50127 143.692 8.11281 143.507 7.74284Z" fill="#91BA57"/>
<path d="M79.1114 32.1233C76.6512 32.0678 74.8013 31.9568 72.9885 31.4388C70.4357 30.7174 68.2529 29.404 66.7176 27.2027C66.2366 26.5183 65.9036 25.7599 65.4967 25.0384C65.3117 24.724 65.4227 24.539 65.7187 24.3725C66.9026 23.7621 68.0494 23.1331 69.2518 22.5597C70.1028 22.1527 70.1213 22.1712 70.6022 22.9851C71.5641 24.5575 72.933 25.5934 74.6533 26.2408C75.9482 26.7218 77.2801 26.9438 78.6305 26.9253C80.4063 26.8883 82.1821 26.7033 83.7545 25.6674C85.2714 24.6685 86.0113 22.8371 85.2344 21.0428C84.8829 20.2104 84.1615 19.6554 83.366 19.267C82.4041 18.8045 81.4052 18.4715 80.3323 18.3421C79.0929 18.1941 77.835 18.0276 76.5957 17.8056C74.3574 17.3986 72.1376 16.8992 70.1768 15.6783C68.8079 14.8274 67.7905 13.662 67.217 12.1821C66.6621 10.6838 66.4956 9.11141 66.7731 7.50206C67.291 4.46834 69.1593 2.58151 71.8601 1.36063C73.081 0.805677 74.3759 0.491206 75.6892 0.250728C77.4281 -0.082241 79.1669 -0.0452444 80.8688 0.139739C83.0516 0.324721 85.1604 0.916667 87.0102 2.19305C88.3791 3.11796 89.4335 4.32035 90.2104 5.76322C90.2659 5.87421 90.1919 6.13318 90.0994 6.20718C89.7294 6.44766 89.304 6.61414 88.9155 6.81762C87.9721 7.29858 87.0287 7.79803 86.0853 8.27899C85.8078 8.42697 85.6598 8.35298 85.4748 8.1125C84.2355 6.54015 82.5336 5.76322 80.6468 5.30076C79.0929 4.9308 77.5576 5.00479 76.0407 5.33776C74.5978 5.65223 73.2845 6.28117 72.6555 7.77953C72.0636 9.2409 72.489 10.6098 73.8394 11.4052C75.0233 12.1081 76.3552 12.3486 77.7056 12.5521C79.3149 12.7926 80.9243 13.07 82.5151 13.329C84.032 13.5695 85.4563 14.0505 86.8252 14.7349C88.86 15.7708 90.3584 17.2877 90.9133 19.5629C91.1538 20.5249 91.3573 21.5423 91.3388 22.5227C91.2648 25.4454 90.1919 27.9057 87.7316 29.626C86.0483 30.8099 84.1615 31.5128 82.1082 31.7718C80.8873 31.9383 79.7034 32.0493 79.1114 32.1233Z" fill="#91BA57"/>
<path d="M15.5345 24.1882C15.738 23.7073 15.9415 23.2448 16.1265 22.7639C16.7739 21.136 17.4028 19.5082 18.0318 17.8618C18.7902 15.8825 19.5486 13.9032 20.3256 11.9239C21.0285 10.111 21.7499 8.29821 22.4714 6.48537C23.0633 4.96851 23.6553 3.45165 24.2102 1.93479C24.5432 1.06537 24.5247 1.04688 25.4866 1.04688C27.1514 1.04688 28.8163 1.04688 30.4811 1.04688C30.9991 1.04688 31.0546 1.15786 30.8511 1.65732C30.2222 3.11868 29.6302 4.59855 29.0198 6.07841C28.3908 7.59527 27.7434 9.11213 27.1144 10.629C26.319 12.5528 25.5421 14.4766 24.7652 16.382C24.1917 17.7508 23.6183 19.1382 23.0448 20.5071C22.3419 22.2089 21.6205 23.9108 20.9175 25.6126C20.1591 27.4254 19.4192 29.2568 18.6607 31.0511C18.5867 31.2361 18.2908 31.4211 18.1058 31.4211C16.3854 31.4581 14.6466 31.4581 12.9263 31.4211C12.7228 31.4211 12.4268 31.1621 12.3343 30.9586C11.6499 29.3863 11.0209 27.8139 10.3735 26.2415C9.57806 24.3362 8.78264 22.4124 7.98721 20.5071C7.26578 18.7312 6.54434 16.9554 5.80441 15.1796C5.30496 13.9587 4.75001 12.7563 4.25056 11.5354C3.54762 9.85206 2.86319 8.15022 2.17875 6.46687C1.6423 5.26449 1.12435 4.0436 0.606394 2.80421C0.421411 2.36025 0.217929 1.93479 0.0514449 1.49083C-0.0595449 1.23186 -0.00404999 1.06537 0.347418 1.06537C2.23424 1.06537 4.13957 1.06537 6.02639 1.06537C6.35936 1.06537 6.50735 1.23186 6.59984 1.50933C7.46926 3.80312 8.33868 6.09691 9.2451 8.3907C10.2255 10.9065 11.2244 13.4222 12.2048 15.938C13.0742 18.1763 13.9252 20.4331 14.7946 22.6899C14.9796 23.1893 15.2015 23.6703 15.405 24.1697C15.442 24.1697 15.4975 24.1882 15.5345 24.1882Z" fill="#91BA57"/>
<path d="M118.737 1.06445C122.696 1.06445 126.654 1.06445 130.613 1.06445C131.26 1.06445 131.279 1.15694 131.26 1.78589C131.224 3.02527 131.205 4.24616 131.26 5.48554C131.279 6.18848 131.242 6.31797 130.558 6.31797C127.801 6.31797 125.045 6.31797 122.289 6.31797C121.604 6.31797 121.604 6.31797 121.604 6.98391C121.604 14.8642 121.604 22.7445 121.604 30.6062C121.604 31.2537 121.567 31.2907 120.92 31.2907C119.44 31.2907 117.96 31.2907 116.48 31.2907C115.833 31.2907 115.796 31.2537 115.796 30.6247C115.796 22.7814 115.796 14.9382 115.796 7.0949C115.796 6.37346 115.759 6.33647 115.038 6.33647C112.318 6.33647 109.618 6.33647 106.898 6.33647C106.251 6.33647 106.195 6.28097 106.195 5.61503C106.195 4.32015 106.195 3.02527 106.195 1.73039C106.195 1.11995 106.251 1.08295 106.861 1.08295C110.82 1.06445 114.779 1.06445 118.737 1.06445Z" fill="#91BA57"/>
<path d="M95.6328 16.1416C95.6328 11.3135 95.6328 6.48546 95.6328 1.67591C95.6328 1.12096 95.7068 1.02847 96.2618 1.00997C97.7601 0.991469 99.2585 0.991469 100.738 1.00997C101.386 1.00997 101.423 1.08396 101.423 1.7499C101.423 11.3505 101.423 20.9511 101.423 30.5517C101.423 31.2732 101.404 31.2917 100.701 31.2917C99.24 31.2917 97.7786 31.2917 96.3173 31.2917C95.6698 31.2917 95.6328 31.2547 95.6328 30.6257C95.6328 25.7977 95.6328 20.9696 95.6328 16.1416Z" fill="#91BA57"/>
<path d="M44.6882 12.5344C44.6882 11.9609 44.6882 11.3875 44.6882 10.8325C44.6882 10.4995 44.8177 10.3516 45.1507 10.3516C46.0756 10.3516 47.0005 10.3516 47.9254 10.3516C48.2769 10.3516 48.4249 10.4995 48.4249 10.851C48.4249 11.9424 48.4434 13.0338 48.4064 14.1252C48.4064 14.5322 48.5358 14.6987 48.9613 14.6987C50.0157 14.6802 51.0886 14.6987 52.143 14.6802C52.5315 14.6802 52.698 14.7912 52.6795 15.1981C52.661 15.975 52.661 16.7335 52.6795 17.5104C52.6795 17.8989 52.5315 18.0653 52.1245 18.0469C51.0701 18.0284 50.0342 18.0469 48.9798 18.0284C48.5358 18.0099 48.3694 18.1578 48.3879 18.6018C48.4064 19.6562 48.4064 20.6921 48.4064 21.7465C48.4064 22.283 48.3324 22.3755 47.7959 22.3755C46.945 22.3755 46.0941 22.3755 45.2616 22.3755C44.8362 22.3755 44.6512 22.2275 44.6697 21.7835C44.6882 20.7291 44.6697 19.6562 44.6882 18.6018C44.6882 18.1948 44.5587 18.0284 44.1333 18.0284C43.1158 18.0469 42.0984 18.0469 41.081 18.0284C40.4891 18.0284 40.4336 17.9544 40.4336 17.3624C40.4336 16.678 40.4336 15.975 40.4336 15.2906C40.4336 14.6987 40.4521 14.6802 41.0255 14.6802C42.0799 14.6802 43.1158 14.6617 44.1702 14.6802C44.5772 14.6802 44.7252 14.5322 44.7067 14.1437C44.6697 13.6073 44.6882 13.0708 44.6882 12.5344Z" fill="#E68C41"/>
<path d="M56.1953 4.65399C55.3814 4.26552 54.6785 3.87706 53.9385 3.56259C52.5882 2.97064 51.1823 2.52668 49.7024 2.45269C45.1703 2.19371 41.3412 3.74757 38.326 7.11426C37.0866 8.50163 36.2357 10.148 35.6622 11.9238C35.5882 12.1273 35.4217 12.3123 35.2553 12.6083C34.7188 8.15016 38.3815 2.74866 43.5055 1.12081C49.3325 -0.766013 54.7895 2.11972 56.1953 4.65399Z" fill="#E68C41"/>
<path d="M44.5391 5.57754C47.0178 3.41324 52.6783 2.89529 57.0624 5.70703C62.1864 8.99972 63.7033 15.5111 62.0199 19.5253C61.946 19.2848 61.8905 19.1553 61.872 19.0073C61.6685 17.6199 61.576 16.2141 61.2615 14.8637C60.8731 13.1988 60.0591 11.719 58.9677 10.3871C57.7653 8.90723 56.3225 7.66785 54.6576 6.76143C53.1408 5.92901 51.5129 5.35556 49.7556 5.30006C48.5902 5.26307 47.4248 5.28157 46.2594 5.31856C45.8894 5.33706 45.501 5.46655 45.131 5.54054C44.946 5.57754 44.7425 5.57754 44.5391 5.57754Z" fill="#91BA57"/>
<path d="M54.7309 8.92578C54.8974 8.98128 55.0824 8.99977 55.2489 9.07377C56.7287 9.8137 57.8571 10.9606 58.8191 12.2925C59.9844 13.9388 60.7614 15.7516 61.0388 17.7495C61.3903 20.3392 60.9464 22.818 59.781 25.1673C58.7451 27.2576 57.1172 28.7929 55.1564 29.9953C54.398 30.4578 53.5655 30.7908 52.7701 31.1792C52.7331 31.1422 52.6961 31.1052 52.6406 31.0682C52.7331 30.9387 52.8071 30.7908 52.9366 30.6798C53.3436 30.3098 53.7875 29.9583 54.213 29.6069C55.4894 28.534 56.4883 27.2391 57.3207 25.8147C58.2271 24.2609 58.7636 22.596 58.9855 20.8202C59.189 19.3588 59.0965 17.9159 58.8006 16.4731C58.2271 13.7538 56.9322 11.4231 54.9899 9.44373C54.8789 9.33274 54.7679 9.20326 54.6569 9.07377C54.6939 9.03677 54.7124 8.98128 54.7309 8.92578Z" fill="#E68C41"/>
<path d="M38.3058 3.06286C35.4015 6.04108 33.4962 9.46327 33.5517 13.7364C33.5887 17.9725 35.5125 21.3577 38.5093 24.2434C38.4723 24.2989 38.4168 24.3544 38.3798 24.4099C38.0098 24.2619 37.6213 24.1694 37.2699 23.9844C35.457 23.004 34.1067 21.5611 33.1817 19.7483C32.6453 18.6939 32.1458 17.621 31.8499 16.4926C31.4429 14.9573 31.3504 13.4034 31.6279 11.8125C31.9054 10.2957 32.3863 8.87132 33.1078 7.52094C33.9957 5.8561 35.1241 4.39473 36.8074 3.45132C37.2329 3.21084 37.7138 3.06286 38.1578 2.85938C38.2133 2.93337 38.2503 3.00736 38.3058 3.06286Z" fill="#91BA57"/>
<path d="M30.7946 15.5488C31.4235 19.9329 33.4768 23.3736 37.1025 25.7784C40.7467 28.2017 44.7423 28.5901 48.9229 27.3692C48.9414 27.4062 48.9784 27.4432 48.9969 27.4802C48.8674 27.6097 48.7379 27.7947 48.5899 27.8502C47.3506 28.3126 46.1112 28.8491 44.8163 29.1821C43.5769 29.4965 42.3005 29.4965 41.0241 29.3116C37.6205 28.8121 34.9012 27.1288 32.7739 24.465C31.8305 23.2996 31.1831 21.9492 30.9056 20.4509C30.6836 19.23 30.5726 17.9906 30.4616 16.7512C30.4246 16.4367 30.5171 16.1038 30.5726 15.7893C30.5726 15.7338 30.6651 15.6783 30.7946 15.5488Z" fill="#E68C41"/>
<path d="M57.0274 20.3223C57.4528 23.3375 55.677 28.5355 50.553 30.9403C48.0742 32.0872 45.5029 32.5126 42.8022 31.9577C41.1188 31.6247 39.5465 30.9773 38.1406 30.0154C38.1591 29.9599 38.1776 29.8859 38.1961 29.8304C38.7141 29.9414 39.2505 30.0524 39.7685 30.1819C41.3778 30.6073 43.0057 30.7553 44.652 30.6628C46.0394 30.5888 47.3898 30.2373 48.6847 29.7379C49.998 29.2199 51.2004 28.5355 52.2918 27.6476C53.6607 26.5377 54.7891 25.2243 55.603 23.6705C56.084 22.727 56.4169 21.6911 56.8239 20.7107C56.8609 20.5997 56.9164 20.5257 57.0274 20.3223Z" fill="#91BA57"/>
</svg>
